<svg viewBox="0 0 1068 400" xmlns="http://www.w3.org/2000/svg"><g><g><g><g><g><line x1="50" y1="378" x2="45" y2="378" style="visibility: inherit;" fill="rgb(0, 0, 0)" stroke="rgb(204, 204, 204)" stroke-width="1px"></line><line x1="50" y1="343.6363636363636" x2="45" y2="343.6363636363636" style="visibility: inherit;" fill="rgb(0, 0, 0)" stroke="rgb(204, 204, 204)" stroke-width="1px"></line><line x1="50" y1="309.27272727272725" x2="45" y2="309.27272727272725" style="visibility: inherit;" fill="rgb(0, 0, 0)" stroke="rgb(204, 204, 204)" stroke-width="1px"></line><line x1="50" y1="274.9090909090909" x2="45" y2="274.9090909090909" style="visibility: inherit;" fill="rgb(0, 0, 0)" stroke="rgb(204, 204, 204)" stroke-width="1px"></line><line x1="50" y1="240.54545454545453" x2="45" y2="240.54545454545453" style="visibility: inherit;" fill="rgb(0, 0, 0)" stroke="rgb(204, 204, 204)" stroke-width="1px"></line><line x1="50" y1="206.1818181818182" x2="45" y2="206.1818181818182" style="visibility: inherit;" fill="rgb(0, 0, 0)" stroke="rgb(204, 204, 204)" stroke-width="1px"></line><line x1="50" y1="171.81818181818184" x2="45" y2="171.81818181818184" style="visibility: inherit;" fill="rgb(0, 0, 0)" stroke="rgb(204, 204, 204)" stroke-width="1px"></line><line x1="50" y1="137.4545454545455" x2="45" y2="137.4545454545455" style="visibility: inherit;" fill="rgb(0, 0, 0)" stroke="rgb(204, 204, 204)" stroke-width="1px"></line><line x1="50" y1="103.09090909090912" x2="45" y2="103.09090909090912" style="visibility: inherit;" fill="rgb(0, 0, 0)" stroke="rgb(204, 204, 204)" stroke-width="1px"></line><line x1="50" y1="68.72727272727275" x2="45" y2="68.72727272727275" style="visibility: inherit;" fill="rgb(0, 0, 0)" stroke="rgb(204, 204, 204)" stroke-width="1px"></line><line x1="50" y1="34.363636363636374" x2="45" y2="34.363636363636374" style="visibility: inherit;" fill="rgb(0, 0, 0)" stroke="rgb(204, 204, 204)" stroke-width="1px"></line><line x1="50" y1="0" x2="45" y2="0" style="visibility: inherit;" fill="rgb(0, 0, 0)" stroke="rgb(204, 204, 204)" stroke-width="1px"></line></g><g transform="translate(40, 0)"><text x="0" y="378" dx="0em" dy="0.3em" style="text-anchor: end; visibility: hidden; font-family: &quot;Helvetica Neue&quot;, sans-serif; font-size: 12px; font-weight: 200;" fill="rgb(50, 49, 63)" stroke="none" stroke-width="1px">-0.1</text><text x="0" y="343.6363636363636" dx="0em" dy="0.3em" style="text-anchor: end; visibility: inherit; font-family: &quot;Helvetica Neue&quot;, sans-serif; font-size: 12px; font-weight: 200;" fill="rgb(50, 49, 63)" stroke="none" stroke-width="1px">0</text><text x="0" y="309.27272727272725" dx="0em" dy="0.3em" style="text-anchor: end; visibility: inherit; font-family: &quot;Helvetica Neue&quot;, sans-serif; font-size: 12px; font-weight: 200;" fill="rgb(50, 49, 63)" stroke="none" stroke-width="1px">0.1</text><text x="0" y="274.9090909090909" dx="0em" dy="0.3em" style="text-anchor: end; visibility: inherit; font-family: &quot;Helvetica Neue&quot;, sans-serif; font-size: 12px; font-weight: 200;" fill="rgb(50, 49, 63)" stroke="none" stroke-width="1px">0.2</text><text x="0" y="240.54545454545453" dx="0em" dy="0.3em" style="text-anchor: end; visibility: inherit; font-family: &quot;Helvetica Neue&quot;, sans-serif; font-size: 12px; font-weight: 200;" fill="rgb(50, 49, 63)" stroke="none" stroke-width="1px">0.3</text><text x="0" y="206.1818181818182" dx="0em" dy="0.3em" style="text-anchor: end; visibility: inherit; font-family: &quot;Helvetica Neue&quot;, sans-serif; font-size: 12px; font-weight: 200;" fill="rgb(50, 49, 63)" stroke="none" stroke-width="1px">0.4</text><text x="0" y="171.81818181818184" dx="0em" dy="0.3em" style="text-anchor: end; visibility: inherit; font-family: &quot;Helvetica Neue&quot;, sans-serif; font-size: 12px; font-weight: 200;" fill="rgb(50, 49, 63)" stroke="none" stroke-width="1px">0.5</text><text x="0" y="137.4545454545455" dx="0em" dy="0.3em" style="text-anchor: end; visibility: inherit; font-family: &quot;Helvetica Neue&quot;, sans-serif; font-size: 12px; font-weight: 200;" fill="rgb(50, 49, 63)" stroke="none" stroke-width="1px">0.6</text><text x="0" y="103.09090909090912" dx="0em" dy="0.3em" style="text-anchor: end; visibility: inherit; font-family: &quot;Helvetica Neue&quot;, sans-serif; font-size: 12px; font-weight: 200;" fill="rgb(50, 49, 63)" stroke="none" stroke-width="1px">0.7</text><text x="0" y="68.72727272727275" dx="0em" dy="0.3em" style="text-anchor: end; visibility: inherit; font-family: &quot;Helvetica Neue&quot;, sans-serif; font-size: 12px; font-weight: 200;" fill="rgb(50, 49, 63)" stroke="none" stroke-width="1px">0.8</text><text x="0" y="34.363636363636374" dx="0em" dy="0.3em" style="text-anchor: end; visibility: inherit; font-family: &quot;Helvetica Neue&quot;, sans-serif; font-size: 12px; font-weight: 200;" fill="rgb(50, 49, 63)" stroke="none" stroke-width="1px">0.9</text><text x="0" y="0" dx="0em" dy="0.3em" style="text-anchor: end; visibility: hidden; font-family: &quot;Helvetica Neue&quot;, sans-serif; font-size: 12px; font-weight: 200;" fill="rgb(50, 49, 63)" stroke="none" stroke-width="1px">1</text></g><line x1="50" y1="0" x2="50" y2="378" fill="rgb(0, 0, 0)" stroke="rgb(204, 204, 204)" stroke-width="1px"></line></g></g><g transform="translate(50, 0)" clip-path="url(#clip_0)"><clipPath id="clip_0"><rect width="1018" height="378"></rect></clipPath><g><g><g><line x1="0" y1="0" x2="0" y2="378" fill="rgb(0, 0, 0)" stroke="rgb(60, 60, 60)" stroke-width="1px" opacity="0.25"></line><line x1="113.1111111111111" y1="0" x2="113.1111111111111" y2="378" fill="rgb(0, 0, 0)" stroke="rgb(60, 60, 60)" stroke-width="1px" opacity="0.25"></line><line x1="226.2222222222222" y1="0" x2="226.2222222222222" y2="378" fill="rgb(0, 0, 0)" stroke="rgb(60, 60, 60)" stroke-width="1px" opacity="0.25"></line><line x1="339.3333333333333" y1="0" x2="339.3333333333333" y2="378" fill="rgb(0, 0, 0)" stroke="rgb(60, 60, 60)" stroke-width="1px" opacity="0.25"></line><line x1="452.4444444444444" y1="0" x2="452.4444444444444" y2="378" fill="rgb(0, 0, 0)" stroke="rgb(60, 60, 60)" stroke-width="1px" opacity="0.25"></line><line x1="565.5555555555555" y1="0" x2="565.5555555555555" y2="378" fill="rgb(0, 0, 0)" stroke="rgb(60, 60, 60)" stroke-width="1px" opacity="0.25"></line><line x1="678.6666666666666" y1="0" x2="678.6666666666666" y2="378" fill="rgb(0, 0, 0)" stroke="rgb(60, 60, 60)" stroke-width="1px" opacity="0.25"></line><line x1="791.7777777777778" y1="0" x2="791.7777777777778" y2="378" fill="rgb(0, 0, 0)" stroke="rgb(60, 60, 60)" stroke-width="1px" opacity="0.25"></line><line x1="904.8888888888888" y1="0" x2="904.8888888888888" y2="378" fill="rgb(0, 0, 0)" stroke="rgb(60, 60, 60)" stroke-width="1px" opacity="0.25"></line><line x1="1018" y1="0" x2="1018" y2="378" fill="rgb(0, 0, 0)" stroke="rgb(60, 60, 60)" stroke-width="1px" opacity="0.25"></line></g><g><line x1="0" y1="378" x2="1018" y2="378" fill="rgb(0, 0, 0)" stroke="rgb(60, 60, 60)" stroke-width="1px" opacity="0.25"></line><line x1="0" y1="343.6363636363636" x2="1018" y2="343.6363636363636" fill="rgb(0, 0, 0)" stroke="rgb(60, 60, 60)" stroke-width="1px" opacity="0.25"></line><line x1="0" y1="309.27272727272725" x2="1018" y2="309.27272727272725" fill="rgb(0, 0, 0)" stroke="rgb(60, 60, 60)" stroke-width="1px" opacity="0.25"></line><line x1="0" y1="274.9090909090909" x2="1018" y2="274.9090909090909" fill="rgb(0, 0, 0)" stroke="rgb(60, 60, 60)" stroke-width="1px" opacity="0.25"></line><line x1="0" y1="240.54545454545453" x2="1018" y2="240.54545454545453" fill="rgb(0, 0, 0)" stroke="rgb(60, 60, 60)" stroke-width="1px" opacity="0.25"></line><line x1="0" y1="206.1818181818182" x2="1018" y2="206.1818181818182" fill="rgb(0, 0, 0)" stroke="rgb(60, 60, 60)" stroke-width="1px" opacity="0.25"></line><line x1="0" y1="171.81818181818184" x2="1018" y2="171.81818181818184" fill="rgb(0, 0, 0)" stroke="rgb(60, 60, 60)" stroke-width="1px" opacity="0.25"></line><line x1="0" y1="137.4545454545455" x2="1018" y2="137.4545454545455" fill="rgb(0, 0, 0)" stroke="rgb(60, 60, 60)" stroke-width="1px" opacity="0.25"></line><line x1="0" y1="103.09090909090912" x2="1018" y2="103.09090909090912" fill="rgb(0, 0, 0)" stroke="rgb(60, 60, 60)" stroke-width="1px" opacity="0.25"></line><line x1="0" y1="68.72727272727275" x2="1018" y2="68.72727272727275" fill="rgb(0, 0, 0)" stroke="rgb(60, 60, 60)" stroke-width="1px" opacity="0.25"></line><line x1="0" y1="34.363636363636374" x2="1018" y2="34.363636363636374" fill="rgb(0, 0, 0)" stroke="rgb(60, 60, 60)" stroke-width="1px" opacity="0.25"></line><line x1="0" y1="0" x2="1018" y2="0" fill="rgb(0, 0, 0)" stroke="rgb(60, 60, 60)" stroke-width="1px" opacity="0.25"></line></g></g></g><g><g><line x1="0" y1="343.6363636363636" x2="1018" y2="343.6363636363636" fill="rgb(0, 0, 0)" stroke="rgb(153, 153, 153)" stroke-width="1.5px"></line></g></g><g><g><line x1="113.1111111111111" y1="0" x2="113.1111111111111" y2="378" fill="rgb(0, 0, 0)" stroke="rgb(153, 153, 153)" stroke-width="1.5px"></line></g></g><g><g><g><g><g><path stroke="rgb(238, 51, 119)" stroke-width="2px" d="M113.1111111111111,224.78973041881216L124.42222222222222,195.62359319491821L135.73333333333332,176.98658345581651L147.04444444444442,163.6595683373551L158.35555555555555,152.26766723690332L169.66666666666666,143.12915852073112L180.9777777777778,135.0985249216159L192.2888888888889,128.12672604960073L203.60000000000002,122.27673772446511L214.9111111111111,117.19361442351385L226.2222222222222,112.62183851731942L237.53333333333333,108.60829625275443L248.84444444444443,104.80877932225576L260.1555555555555,101.45581992662937L271.46666666666664,97.90207566289251L282.77777777777777,95.02843451535398L294.08888888888885,92.25993605506147L305.4,89.17633939840232L316.7111111111111,86.6837466577154L328.02222222222224,84.56284171008377L339.3333333333333,81.85735720509507L350.64444444444445,79.5777438910689L361.9555555555556,77.12066280894436L373.26666666666665,75.18251614145913L384.5777777777778,73.70692540189339" style="fill: none;" fill="none"></path></g><g><path stroke="rgb(204, 51, 17)" stroke-width="2px" d="M113.1111111111111,189.4810929081657L124.42222222222222,174.57049914381722L135.73333333333332,161.58606202571428L147.04444444444442,150.29485699645983L158.35555555555555,140.6157810572503L169.66666666666666,132.34346054580962L180.9777777777778,125.00390837438798L192.2888888888889,118.30833886118785L203.60000000000002,112.42322622462115L214.9111111111111,106.73843769534392L226.2222222222222,101.73901873093189L237.53333333333333,97.72817295624031L248.84444444444443,93.93370748495005L260.1555555555555,90.33960615518129L271.46666666666664,87.86865947775334L282.77777777777777,84.69566523516119L294.08888888888885,81.9881941043734L305.4,79.39828802583855L316.7111111111111,77.13314286821696L328.02222222222224,75.03186215558128L339.3333333333333,73.01169084416011L350.64444444444445,70.7377660278488L361.9555555555556,69.13288398775887L373.26666666666665,68.01876164756811L384.5777777777778,66.24377601641322L395.8888888888889,65.11693933818037L407.20000000000005,63.918506008761256L418.5111111111111,62.32317149888979L429.8222222222222,61.02577628902861L441.1333333333333,60.33325054525841" style="fill: none;" fill="none"></path></g><g><path stroke="rgb(255, 112, 67)" stroke-width="2px" d="M113.1111111111111,314.0836353600025L124.42222222222222,310.2177264355123L135.73333333333332,307.4563635711546L147.04444444444442,306.0801938056129L158.35555555555555,307.31583567541725L169.66666666666666,305.5416332075012L180.9777777777778,306.7942266033421L192.2888888888889,306.2647332188612L203.60000000000002,305.53622551669497L214.9111111111111,306.9016272524369L226.2222222222222,305.23237452027246L237.53333333333333,303.6836894585164L248.84444444444443,302.7566387792233L260.1555555555555,302.7514333569281L271.46666666666664,296.6974677317743L282.77777777777777,290.7295233059256L294.08888888888885,284.67523479677584L305.4,280.76838005205684L316.7111111111111,272.37615262944365L328.02222222222224,265.27924982666957L339.3333333333333,261.7085613608376L350.64444444444445,256.26724740844367L361.9555555555556,254.92688351098317L373.26666666666665,251.64847748763782L384.5777777777778,248.16943850103726L395.8888888888889,239.6216480280779L407.20000000000005,235.86752862664267L418.5111111111111,234.16487907855594L429.8222222222222,234.93020134123066L441.1333333333333,233.32757375056852L452.4444444444444,233.74054584539024L463.75555555555553,234.26323464066752L475.06666666666666,228.94121417514438L486.3777777777778,226.71018380591244L497.68888888888887,223.85956458336756L509,223.93610376358578L520.311111111111,218.34638969291623L531.6222222222223,215.81729021980112L542.9333333333333,216.91146605933258L554.2444444444444,213.8566974528454L565.5555555555555,214.36056215698406L576.8666666666667,211.08906374605044L588.1777777777777,211.73780021282366L599.4888888888889,209.92776900462505L610.8,206.0926619922673L622.1111111111112,200.0803236811915L633.4222222222222,199.90928515057112L644.7333333333333,197.33247929635755L656.0444444444445,193.86203234410715L667.3555555555556,192.3295834688479L678.6666666666666,189.07338828014548L689.9777777777778,185.19530772719523L701.2888888888889,181.63136802753516L712.5999999999999,178.53082248787544L723.9111111111112,177.49522001170237L735.2222222222222,178.66076918995117L746.5333333333333,173.0371849851775L757.8444444444444,173.51176543824596L769.1555555555556,169.12305788653507L780.4666666666667,168.1392912436786L791.7777777777778,166.17448711428798L803.0888888888888,163.48359952426568L814.4000000000001,158.29525383527857L825.7111111111111,158.2062402608035L837.0222222222222,156.36592964509626L848.3333333333334,153.74973816328398L859.6444444444444,150.9429319063017L870.9555555555555,148.4341233044922L882.2666666666667,144.86702192789133L893.5777777777778,143.13911942927618L904.8888888888888,141.41510585826876L916.2,138.3188815001491L927.5111111111111,133.57459762921266L938.8222222222223,136.0887592985054L950.1333333333333,133.3361629003396" style="fill: none;" fill="none"></path></g></g></g></g><g opacity="0.2"><g><g><g><path stroke="rgb(238, 51, 119)" stroke-width="2px" d="M113.1111111111111,224.78973041881216L124.42222222222222,178.12391086058184L135.73333333333332,159.0950541062789L147.04444444444442,147.98699855804446L158.35555555555555,137.3944011601535L169.66666666666666,130.48731110312724L180.9777777777778,123.61459038474345L192.2888888888889,117.96177636493337L203.60000000000002,113.64914124662226L214.9111111111111,109.64576872912323L226.2222222222222,105.80564032901418L237.53333333333333,102.60982437567282L248.84444444444443,99.1219100085172L260.1555555555555,96.43294962969696L271.46666666666664,92.57563656026667L282.77777777777777,90.71999950842428L294.08888888888885,88.10835990038788L305.4,84.55172733827072L316.7111111111111,82.9452372681011L328.02222222222224,81.38167814774948L339.3333333333333,77.7992788228122L350.64444444444445,76.15839893167669L361.9555555555556,73.43508969653737L373.26666666666665,72.27531909942633L384.5777777777778,71.4935497804122" style="fill: none;" fill="none"></path></g><g><path stroke="rgb(204, 51, 17)" stroke-width="2px" d="M113.1111111111111,189.4810929081657L124.42222222222222,165.62414288520816L135.73333333333332,149.1210023923354L147.04444444444442,137.0163998820565L158.35555555555555,127.97877951101827L169.66666666666666,120.89986324310308L180.9777777777778,114.50823133642024L192.2888888888889,108.54613423347479L203.60000000000002,103.74382820996374L214.9111111111111,98.29718925736171L226.2222222222222,94.28523464636373L237.53333333333333,91.73373113978994L248.84444444444443,88.25439886613327L260.1555555555555,84.95549537918788L271.46666666666664,84.16514396667486L282.77777777777777,79.93841171264654L294.08888888888885,77.92813311923635L305.4,75.51408648490911L316.7111111111111,73.7357702038505L328.02222222222224,71.88013315200811L339.3333333333333,69.98154466802424L350.64444444444445,67.32695362784648L361.9555555555556,66.72559261322027L373.26666666666665,66.34759133512324L384.5777777777778,63.58131018551916L395.8888888888889,63.42668912627482L407.20000000000005,62.12085908109492L418.5111111111111,59.93017218329692L429.8222222222222,59.07968466932124L441.1333333333333,59.29446231235164" style="fill: none;" fill="none"></path></g><g><path stroke="rgb(255, 112, 67)" stroke-width="2px" d="M113.1111111111111,314.0836353600025L124.42222222222222,307.8981810808182L135.73333333333332,304.80545522137123L147.04444444444442,304.4618181613359L158.35555555555555,308.9290897006338L169.66666666666666,303.08727248148483L180.9777777777778,308.5854552008889L192.2888888888889,305.49272678115153L203.60000000000002,304.4618181613359L214.9111111111111,308.9290897006338L226.2222222222222,302.7436354214495L237.53333333333333,301.3690897415985L248.84444444444443,301.3690897415985L260.1555555555555,302.7436354214495L271.46666666666664,287.6236355033788L282.77777777777777,281.7818157239394L294.08888888888885,275.5963640050455L305.4,274.9090898849748L316.7111111111111,259.78908996690404L328.02222222222224,254.63454430753538L339.3333333333333,256.35272448713135L350.64444444444445,248.1054555286061L361.9555555555556,252.91636412793943L373.26666666666665,246.73090728846464L384.5777777777778,242.95090474865654L395.8888888888889,226.79999877106061L407.20000000000005,230.2363591302525L418.5111111111111,231.61090737039396L429.8222222222222,236.07818403027275L441.1333333333333,230.92363325032323L452.4444444444444,234.3600038506768L463.75555555555553,235.04726772958585L475.06666666666666,220.95818411220205L486.3777777777778,223.36363841186872L497.68888888888887,219.58363587206063L509,224.05091253193945L520.311111111111,209.96181867339396L531.6222222222223,212.0236410336061L542.9333333333333,218.55272981253538L554.2444444444444,209.27454455332324L565.5555555555555,215.1163592121818L576.8666666666667,206.18181613358587L588.1777777777777,212.71090491251513L599.4888888888889,207.2127221931111L610.8,200.3400014747273L622.1111111111112,191.06181621551517L633.4222222222222,199.6527273546566L644.7333333333333,193.4672705151818L656.0444444444445,188.6563619158485L667.3555555555556,190.03091015598991L678.6666666666666,184.18909549713138L689.9777777777778,179.37818689779803L701.2888888888889,176.28545847806063L712.5999999999999,173.880004178394L723.9111111111112,175.94181629744446L735.2222222222222,180.40909295732328L746.5333333333333,164.60180867802015L757.8444444444444,174.2236361178485L769.1555555555556,162.5399965589697L780.4666666666667,166.663641279394L791.7777777777778,163.2272809202021L803.0888888888888,159.4472681392323L814.4000000000001,150.51273530179807L825.7111111111111,158.07271989909088L837.0222222222222,153.60546372153544L848.3333333333334,149.82545094056567L859.6444444444444,146.73272252082828L870.9555555555555,144.67091040177783L882.2666666666667,139.51636986299L893.5777777777778,140.54726568135348L904.8888888888888,138.82908550175753L916.2,133.6745449629697L927.5111111111111,126.45817182280803L938.8222222222223,139.8600018024445L950.1333333333333,129.2072683030909" style="fill: none;" fill="none"></path></g></g></g></g></g></g><g transform="translate(50, 378)" clip-path="url(#clip_1)"><clipPath id="clip_1"><rect width="1018" height="22"></rect></clipPath><g><g><line x1="0" y1="0" x2="0" y2="5" style="visibility: inherit;" fill="rgb(0, 0, 0)" stroke="rgb(204, 204, 204)" stroke-width="1px"></line><line x1="113.1111111111111" y1="0" x2="113.1111111111111" y2="5" style="visibility: inherit;" fill="rgb(0, 0, 0)" stroke="rgb(204, 204, 204)" stroke-width="1px"></line><line x1="226.2222222222222" y1="0" x2="226.2222222222222" y2="5" style="visibility: inherit;" fill="rgb(0, 0, 0)" stroke="rgb(204, 204, 204)" stroke-width="1px"></line><line x1="339.3333333333333" y1="0" x2="339.3333333333333" y2="5" style="visibility: inherit;" fill="rgb(0, 0, 0)" stroke="rgb(204, 204, 204)" stroke-width="1px"></line><line x1="452.4444444444444" y1="0" x2="452.4444444444444" y2="5" style="visibility: inherit;" fill="rgb(0, 0, 0)" stroke="rgb(204, 204, 204)" stroke-width="1px"></line><line x1="565.5555555555555" y1="0" x2="565.5555555555555" y2="5" style="visibility: inherit;" fill="rgb(0, 0, 0)" stroke="rgb(204, 204, 204)" stroke-width="1px"></line><line x1="678.6666666666666" y1="0" x2="678.6666666666666" y2="5" style="visibility: inherit;" fill="rgb(0, 0, 0)" stroke="rgb(204, 204, 204)" stroke-width="1px"></line><line x1="791.7777777777778" y1="0" x2="791.7777777777778" y2="5" style="visibility: inherit;" fill="rgb(0, 0, 0)" stroke="rgb(204, 204, 204)" stroke-width="1px"></line><line x1="904.8888888888888" y1="0" x2="904.8888888888888" y2="5" style="visibility: inherit;" fill="rgb(0, 0, 0)" stroke="rgb(204, 204, 204)" stroke-width="1px"></line><line x1="1018" y1="0" x2="1018" y2="5" style="visibility: inherit;" fill="rgb(0, 0, 0)" stroke="rgb(204, 204, 204)" stroke-width="1px"></line></g><g transform="translate(0, 8)"><text x="0" y="0" dx="0em" dy="0.95em" style="text-anchor: middle; visibility: hidden; font-family: &quot;Helvetica Neue&quot;, sans-serif; font-size: 12px; font-weight: 200;" fill="rgb(50, 49, 63)" stroke="none" stroke-width="1px">-10</text><text x="113.1111111111111" y="0" dx="0em" dy="0.95em" style="text-anchor: middle; visibility: inherit; font-family: &quot;Helvetica Neue&quot;, sans-serif; font-size: 12px; font-weight: 200;" fill="rgb(50, 49, 63)" stroke="none" stroke-width="1px">0</text><text x="226.2222222222222" y="0" dx="0em" dy="0.95em" style="text-anchor: middle; visibility: inherit; font-family: &quot;Helvetica Neue&quot;, sans-serif; font-size: 12px; font-weight: 200;" fill="rgb(50, 49, 63)" stroke="none" stroke-width="1px">10</text><text x="339.3333333333333" y="0" dx="0em" dy="0.95em" style="text-anchor: middle; visibility: inherit; font-family: &quot;Helvetica Neue&quot;, sans-serif; font-size: 12px; font-weight: 200;" fill="rgb(50, 49, 63)" stroke="none" stroke-width="1px">20</text><text x="452.4444444444444" y="0" dx="0em" dy="0.95em" style="text-anchor: middle; visibility: inherit; font-family: &quot;Helvetica Neue&quot;, sans-serif; font-size: 12px; font-weight: 200;" fill="rgb(50, 49, 63)" stroke="none" stroke-width="1px">30</text><text x="565.5555555555555" y="0" dx="0em" dy="0.95em" style="text-anchor: middle; visibility: inherit; font-family: &quot;Helvetica Neue&quot;, sans-serif; font-size: 12px; font-weight: 200;" fill="rgb(50, 49, 63)" stroke="none" stroke-width="1px">40</text><text x="678.6666666666666" y="0" dx="0em" dy="0.95em" style="text-anchor: middle; visibility: inherit; font-family: &quot;Helvetica Neue&quot;, sans-serif; font-size: 12px; font-weight: 200;" fill="rgb(50, 49, 63)" stroke="none" stroke-width="1px">50</text><text x="791.7777777777778" y="0" dx="0em" dy="0.95em" style="text-anchor: middle; visibility: inherit; font-family: &quot;Helvetica Neue&quot;, sans-serif; font-size: 12px; font-weight: 200;" fill="rgb(50, 49, 63)" stroke="none" stroke-width="1px">60</text><text x="904.8888888888888" y="0" dx="0em" dy="0.95em" style="text-anchor: middle; visibility: inherit; font-family: &quot;Helvetica Neue&quot;, sans-serif; font-size: 12px; font-weight: 200;" fill="rgb(50, 49, 63)" stroke="none" stroke-width="1px">70</text><text x="1018" y="0" dx="0em" dy="0.95em" style="text-anchor: middle; visibility: hidden; font-family: &quot;Helvetica Neue&quot;, sans-serif; font-size: 12px; font-weight: 200;" fill="rgb(50, 49, 63)" stroke="none" stroke-width="1px">80</text></g><line x1="0" y1="0" x2="1018" y2="0" fill="rgb(0, 0, 0)" stroke="rgb(204, 204, 204)" stroke-width="1px"></line></g></g></g></g></svg>