<svg viewBox="0 0 1068 400" xmlns="http://www.w3.org/2000/svg"><g><g><g><g><g><line x1="50" y1="378" x2="45" y2="378" style="visibility: inherit;" fill="rgb(0, 0, 0)" stroke="rgb(204, 204, 204)" stroke-width="1px"></line><line x1="50" y1="324" x2="45" y2="324" style="visibility: inherit;" fill="rgb(0, 0, 0)" stroke="rgb(204, 204, 204)" stroke-width="1px"></line><line x1="50" y1="270" x2="45" y2="270" style="visibility: inherit;" fill="rgb(0, 0, 0)" stroke="rgb(204, 204, 204)" stroke-width="1px"></line><line x1="50" y1="216" x2="45" y2="216" style="visibility: inherit;" fill="rgb(0, 0, 0)" stroke="rgb(204, 204, 204)" stroke-width="1px"></line><line x1="50" y1="162" x2="45" y2="162" style="visibility: inherit;" fill="rgb(0, 0, 0)" stroke="rgb(204, 204, 204)" stroke-width="1px"></line><line x1="50" y1="108" x2="45" y2="108" style="visibility: inherit;" fill="rgb(0, 0, 0)" stroke="rgb(204, 204, 204)" stroke-width="1px"></line><line x1="50" y1="54" x2="45" y2="54" style="visibility: inherit;" fill="rgb(0, 0, 0)" stroke="rgb(204, 204, 204)" stroke-width="1px"></line><line x1="50" y1="0" x2="45" y2="0" style="visibility: inherit;" fill="rgb(0, 0, 0)" stroke="rgb(204, 204, 204)" stroke-width="1px"></line></g><g transform="translate(40, 0)"><text x="0" y="378" dx="0em" dy="0.3em" style="text-anchor: end; visibility: hidden; font-family: &quot;Helvetica Neue&quot;, sans-serif; font-size: 12px; font-weight: 200;" fill="rgb(50, 49, 63)" stroke="none" stroke-width="1px">-0.5</text><text x="0" y="324" dx="0em" dy="0.3em" style="text-anchor: end; visibility: inherit; font-family: &quot;Helvetica Neue&quot;, sans-serif; font-size: 12px; font-weight: 200;" fill="rgb(50, 49, 63)" stroke="none" stroke-width="1px">0</text><text x="0" y="270" dx="0em" dy="0.3em" style="text-anchor: end; visibility: inherit; font-family: &quot;Helvetica Neue&quot;, sans-serif; font-size: 12px; font-weight: 200;" fill="rgb(50, 49, 63)" stroke="none" stroke-width="1px">0.5</text><text x="0" y="216" dx="0em" dy="0.3em" style="text-anchor: end; visibility: inherit; font-family: &quot;Helvetica Neue&quot;, sans-serif; font-size: 12px; font-weight: 200;" fill="rgb(50, 49, 63)" stroke="none" stroke-width="1px">1</text><text x="0" y="162" dx="0em" dy="0.3em" style="text-anchor: end; visibility: inherit; font-family: &quot;Helvetica Neue&quot;, sans-serif; font-size: 12px; font-weight: 200;" fill="rgb(50, 49, 63)" stroke="none" stroke-width="1px">1.5</text><text x="0" y="108" dx="0em" dy="0.3em" style="text-anchor: end; visibility: inherit; font-family: &quot;Helvetica Neue&quot;, sans-serif; font-size: 12px; font-weight: 200;" fill="rgb(50, 49, 63)" stroke="none" stroke-width="1px">2</text><text x="0" y="54" dx="0em" dy="0.3em" style="text-anchor: end; visibility: inherit; font-family: &quot;Helvetica Neue&quot;, sans-serif; font-size: 12px; font-weight: 200;" fill="rgb(50, 49, 63)" stroke="none" stroke-width="1px">2.5</text><text x="0" y="0" dx="0em" dy="0.3em" style="text-anchor: end; visibility: hidden; font-family: &quot;Helvetica Neue&quot;, sans-serif; font-size: 12px; font-weight: 200;" fill="rgb(50, 49, 63)" stroke="none" stroke-width="1px">3</text></g><line x1="50" y1="0" x2="50" y2="378" fill="rgb(0, 0, 0)" stroke="rgb(204, 204, 204)" stroke-width="1px"></line></g></g><g transform="translate(50, 0)" clip-path="url(#clip_0)"><clipPath id="clip_0"><rect width="1018" height="378"></rect></clipPath><g><g><g><line x1="0" y1="0" x2="0" y2="378" fill="rgb(0, 0, 0)" stroke="rgb(60, 60, 60)" stroke-width="1px" opacity="0.25"></line><line x1="113.1111111111111" y1="0" x2="113.1111111111111" y2="378" fill="rgb(0, 0, 0)" stroke="rgb(60, 60, 60)" stroke-width="1px" opacity="0.25"></line><line x1="226.2222222222222" y1="0" x2="226.2222222222222" y2="378" fill="rgb(0, 0, 0)" stroke="rgb(60, 60, 60)" stroke-width="1px" opacity="0.25"></line><line x1="339.3333333333333" y1="0" x2="339.3333333333333" y2="378" fill="rgb(0, 0, 0)" stroke="rgb(60, 60, 60)" stroke-width="1px" opacity="0.25"></line><line x1="452.4444444444444" y1="0" x2="452.4444444444444" y2="378" fill="rgb(0, 0, 0)" stroke="rgb(60, 60, 60)" stroke-width="1px" opacity="0.25"></line><line x1="565.5555555555555" y1="0" x2="565.5555555555555" y2="378" fill="rgb(0, 0, 0)" stroke="rgb(60, 60, 60)" stroke-width="1px" opacity="0.25"></line><line x1="678.6666666666666" y1="0" x2="678.6666666666666" y2="378" fill="rgb(0, 0, 0)" stroke="rgb(60, 60, 60)" stroke-width="1px" opacity="0.25"></line><line x1="791.7777777777778" y1="0" x2="791.7777777777778" y2="378" fill="rgb(0, 0, 0)" stroke="rgb(60, 60, 60)" stroke-width="1px" opacity="0.25"></line><line x1="904.8888888888888" y1="0" x2="904.8888888888888" y2="378" fill="rgb(0, 0, 0)" stroke="rgb(60, 60, 60)" stroke-width="1px" opacity="0.25"></line><line x1="1018" y1="0" x2="1018" y2="378" fill="rgb(0, 0, 0)" stroke="rgb(60, 60, 60)" stroke-width="1px" opacity="0.25"></line></g><g><line x1="0" y1="378" x2="1018" y2="378" fill="rgb(0, 0, 0)" stroke="rgb(60, 60, 60)" stroke-width="1px" opacity="0.25"></line><line x1="0" y1="324" x2="1018" y2="324" fill="rgb(0, 0, 0)" stroke="rgb(60, 60, 60)" stroke-width="1px" opacity="0.25"></line><line x1="0" y1="270" x2="1018" y2="270" fill="rgb(0, 0, 0)" stroke="rgb(60, 60, 60)" stroke-width="1px" opacity="0.25"></line><line x1="0" y1="216" x2="1018" y2="216" fill="rgb(0, 0, 0)" stroke="rgb(60, 60, 60)" stroke-width="1px" opacity="0.25"></line><line x1="0" y1="162" x2="1018" y2="162" fill="rgb(0, 0, 0)" stroke="rgb(60, 60, 60)" stroke-width="1px" opacity="0.25"></line><line x1="0" y1="108" x2="1018" y2="108" fill="rgb(0, 0, 0)" stroke="rgb(60, 60, 60)" stroke-width="1px" opacity="0.25"></line><line x1="0" y1="54" x2="1018" y2="54" fill="rgb(0, 0, 0)" stroke="rgb(60, 60, 60)" stroke-width="1px" opacity="0.25"></line><line x1="0" y1="0" x2="1018" y2="0" fill="rgb(0, 0, 0)" stroke="rgb(60, 60, 60)" stroke-width="1px" opacity="0.25"></line></g></g></g><g><g><line x1="0" y1="324" x2="1018" y2="324" fill="rgb(0, 0, 0)" stroke="rgb(153, 153, 153)" stroke-width="1.5px"></line></g></g><g><g><line x1="113.1111111111111" y1="0" x2="113.1111111111111" y2="378" fill="rgb(0, 0, 0)" stroke="rgb(153, 153, 153)" stroke-width="1.5px"></line></g></g><g><g><g><g><g><path stroke="rgb(238, 51, 119)" stroke-width="2px" d="M113.1111111111111,130.71143102645874L124.42222222222222,154.5565963983536L135.73333333333332,169.10719877359818L147.04444444444442,179.42864012718204L158.35555555555555,188.80104809449335L169.66666666666666,196.45284186129157L180.9777777777778,203.06404835349775L192.2888888888889,208.86104404382002L203.60000000000002,213.8748710012644L214.9111111111111,218.4379202998325L226.2222222222222,222.19503828886198L237.53333333333333,225.77040274455766L248.84444444444443,229.13628245647945L260.1555555555555,232.18689128587144L271.46666666666664,235.25360106833014L282.77777777777777,237.92292768731414L294.08888888888885,240.38600832275034L305.4,242.93566652242828L316.7111111111111,244.92562429999825L328.02222222222224,246.92303155078605L339.3333333333333,249.43167280579482L350.64444444444445,251.48568677420914L361.9555555555556,253.69452380006607L373.26666666666665,255.5627729181304L384.5777777777778,257.0224948471683" style="fill: none;" fill="none"></path></g><g><path stroke="rgb(204, 51, 17)" stroke-width="2px" d="M113.1111111111111,159.77376222610474L124.42222222222222,171.69784963130948L135.73333333333332,181.872942544976L147.04444444444442,190.92555131982354L158.35555555555555,198.9921190753569L169.66666666666666,205.96620553226143L180.9777777777778,212.33623837507275L192.2888888888889,217.9846933044256L203.60000000000002,223.1856131331514L214.9111111111111,227.85582341978417L226.2222222222222,232.13159335627208L237.53333333333333,235.63089362137734L248.84444444444443,239.1423539511008L260.1555555555555,242.31817861741297L271.46666666666664,244.73268727258835L282.77777777777777,247.62008162283732L294.08888888888885,250.04951412384355L305.4,252.279802421559L316.7111111111111,254.36512051189197L328.02222222222224,256.30291438473967L339.3333333333333,258.1269539927637L350.64444444444445,259.794161087006L361.9555555555556,261.2804090128742L373.26666666666665,262.33006316367374L384.5777777777778,263.7596714487058L395.8888888888889,264.9840645212604L407.20000000000005,266.10379168068556L418.5111111111111,267.74328559391995L429.8222222222222,268.74025244344796L441.1333333333333,269.55988069313514" style="fill: none;" fill="none"></path></g><g><path stroke="rgb(255, 112, 67)" stroke-width="2px" d="M113.1111111111111,-33.21578121185303L124.42222222222222,33.81493949890137L135.73333333333332,55.13612330689722L147.04444444444442,64.35613017923697L158.35555555555555,69.28843663948271L169.66666666666666,71.97928155044735L180.9777777777778,73.33464471721624L192.2888888888889,74.20830070939166L203.60000000000002,74.93377198865295L214.9111111111111,75.5179170755506L226.2222222222222,75.97416927831773L237.53333333333333,76.73305290552787L248.84444444444443,77.47923824369684L260.1555555555555,78.46104029349613L271.46666666666664,81.01175521613197L282.77777777777777,83.37877992962115L294.08888888888885,86.84887049542147L305.4,88.41535793078663L316.7111111111111,92.9023179181807L328.02222222222224,99.425559838737L339.3333333333333,103.30019209531679L350.64444444444445,106.59283216420522L361.9555555555556,107.99925441181239L373.26666666666665,112.08843272568828L384.5777777777778,114.67148223941211L395.8888888888889,118.62944924920748L407.20000000000005,120.76660091320917L418.5111111111111,122.1130627236569L429.8222222222222,124.10457409338235L441.1333333333333,125.57646987145401L452.4444444444444,125.33132309824086L463.75555555555553,127.34182304117019L475.06666666666666,130.59272844801782L486.3777777777778,133.4720815482802L497.68888888888887,133.56124556593795L509,134.67849520722666L520.311111111111,136.63241718952878L531.6222222222223,139.62747431165485L542.9333333333333,141.7151192733457L554.2444444444444,143.2554278816792L565.5555555555555,144.36517727738294L576.8666666666667,146.03261440098464L588.1777777777777,143.93793964981262L599.4888888888889,144.84424839392645L610.8,146.2238580346072L622.1111111111112,151.68485879693498L633.4222222222222,153.8616900432571L644.7333333333333,156.76813287672752L656.0444444444445,158.7969598957416L667.3555555555556,161.71502209835725L678.6666666666666,163.48338947972604L689.9777777777778,165.89452835489587L701.2888888888889,168.49767549377702L712.5999999999999,169.86784033502497L723.9111111111112,171.41249802425813L735.2222222222222,171.99532958695497L746.5333333333333,175.9800800611339L757.8444444444444,176.89683461962724L769.1555555555556,180.20393729673998L780.4666666666667,181.45082917491908L791.7777777777778,183.07029685187533L803.0888888888888,185.8435361433518L814.4000000000001,187.72213025382115L825.7111111111111,188.4264795988259L837.0222222222222,191.06109539326772L848.3333333333334,191.76051072869743L859.6444444444444,196.2365714823845L870.9555555555555,197.30033751223343L882.2666666666667,200.668739151322L893.5777777777778,202.8897381731052L904.8888888888888,205.99148317028158L916.2,208.18240325360938L927.5111111111111,210.3427137417164L938.8222222222223,210.8151417185406L950.1333333333333,210.82165033874153" style="fill: none;" fill="none"></path></g></g></g></g><g opacity="0.2"><g><g><g><path stroke="rgb(238, 51, 119)" stroke-width="2px" d="M113.1111111111111,130.71143102645874L124.42222222222222,168.86369562149045L135.73333333333332,183.075777053833L147.04444444444442,191.56665515899658L158.35555555555555,201.037663936615L169.66666666666666,207.03802728652954L180.9777777777778,212.5181794166565L192.2888888888889,217.3131194114685L203.60000000000002,221.26929187774658L214.9111111111111,225.21351671218872L226.2222222222222,227.79663848876953L237.53333333333333,231.11399245262146L248.84444444444443,234.17411184310913L260.1555555555555,236.7568280696869L271.46666666666664,239.85006093978882L282.77777777777777,241.9250349998474L294.08888888888885,244.07958698272705L305.4,246.75950646400452L316.7111111111111,247.9102578163147L328.02222222222224,249.91895985603333L339.3333333333333,253.19449710845947L350.64444444444445,254.5666401386261L361.9555555555556,257.00773572921753L373.26666666666665,258.36512446403503L384.5777777777778,259.21206736564636" style="fill: none;" fill="none"></path></g><g><path stroke="rgb(204, 51, 17)" stroke-width="2px" d="M113.1111111111111,159.77376222610474L124.42222222222222,178.85230207443234L135.73333333333332,191.64103174209595L147.04444444444442,201.5714192390442L158.35555555555555,209.5238299369812L169.66666666666666,215.6138777732849L180.9777777777778,221.44548726081848L192.2888888888889,226.22019481658936L203.60000000000002,230.85595965385437L214.9111111111111,234.79054141044617L226.2222222222222,238.5064673423767L237.53333333333333,240.8608009815216L248.84444444444443,244.39807891845703L260.1555555555555,247.0756938457489L271.46666666666664,248.35161209106445L282.77777777777777,251.9491367340088L294.08888888888885,253.6926348209381L305.4,255.62466859817505L316.7111111111111,257.49277997016907L328.02222222222224,259.2094280719757L339.3333333333333,260.86291337013245L350.64444444444445,262.29491686820984L361.9555555555556,263.50975155830383L373.26666666666665,263.904531955719L384.5777777777778,265.90407371520996L395.8888888888889,266.8206489086151L407.20000000000005,267.78337955474854L418.5111111111111,270.2025239467621L429.8222222222222,270.2357017993927L441.1333333333333,270.7893226146698" style="fill: none;" fill="none"></path></g><g><path stroke="rgb(255, 112, 67)" stroke-width="2px" d="M113.1111111111111,-33.21578121185303L124.42222222222222,74.033371925354L135.73333333333332,75.60445976257324L147.04444444444442,75.1988582611084L158.35555555555555,75.72805595397949L169.66666666666666,75.70168876647949L180.9777777777778,75.27283573150635L192.2888888888889,75.48209953308105L203.60000000000002,76.00370121002197L214.9111111111111,76.38530445098877L226.2222222222222,76.65440940856934L237.53333333333333,77.86724853515625L248.84444444444443,78.59607982635498L260.1555555555555,79.93181991577148L271.46666666666664,84.83482933044434L282.77777777777777,86.9276475906372L294.08888888888885,92.05253791809082L305.4,90.76469135284424L316.7111111111111,99.6320743560791L328.02222222222224,109.20982646942139L339.3333333333333,109.11192798614502L350.64444444444445,111.53168392181396L361.9555555555556,110.10886001586914L373.26666666666665,118.22215175628662L384.5777777777778,118.54603815078735L395.8888888888889,124.56638288497925L407.20000000000005,123.97232294082642L418.5111111111111,124.13275337219241L429.8222222222222,127.09183931350708L441.1333333333333,127.78431272506714L452.4444444444444,124.96360301971436L463.75555555555553,130.357572555542L475.06666666666666,135.4690861701965L486.3777777777778,137.79111099243164L497.68888888888887,133.69499158859256L509,136.35436964035034L520.311111111111,139.5633001327515L531.6222222222223,144.12005996704104L542.9333333333333,144.84658670425415L554.2444444444444,145.565890789032L565.5555555555555,146.02980136871338L576.8666666666667,148.5337700843811L588.1777777777777,140.79592752456665L599.4888888888889,146.2037115097046L610.8,148.29327249526978L622.1111111111112,159.8763599395752L633.4222222222222,157.12693691253662L644.7333333333333,161.12779712677002L656.0444444444445,161.8402004241943L667.3555555555556,166.09211540222168L678.6666666666666,166.1359405517578L689.9777777777778,169.51123666763306L701.2888888888889,172.40239620208743L712.5999999999999,171.9230875968933L723.9111111111112,173.72948455810544L735.2222222222222,172.86957693099976L746.5333333333333,181.9572057723999L757.8444444444444,178.27196645736697L769.1555555555556,185.16459131240845L780.4666666666667,183.3211669921875L791.7777777777778,185.4994983673096L803.0888888888888,190.0033950805664L814.4000000000001,190.54002141952515L825.7111111111111,189.483003616333L837.0222222222222,195.01301908493042L848.3333333333334,192.80963373184204L859.6444444444444,202.95066261291504L870.9555555555555,198.89598655700684L882.2666666666667,205.72134160995483L893.5777777777778,206.22123670578003L904.8888888888888,210.64410066604614L916.2,211.46878337860107L927.5111111111111,213.58317947387695L938.8222222222223,211.52378368377686L950.1333333333333,210.83141326904297" style="fill: none;" fill="none"></path></g></g></g></g></g></g><g transform="translate(50, 378)" clip-path="url(#clip_1)"><clipPath id="clip_1"><rect width="1018" height="22"></rect></clipPath><g><g><line x1="0" y1="0" x2="0" y2="5" style="visibility: inherit;" fill="rgb(0, 0, 0)" stroke="rgb(204, 204, 204)" stroke-width="1px"></line><line x1="113.1111111111111" y1="0" x2="113.1111111111111" y2="5" style="visibility: inherit;" fill="rgb(0, 0, 0)" stroke="rgb(204, 204, 204)" stroke-width="1px"></line><line x1="226.2222222222222" y1="0" x2="226.2222222222222" y2="5" style="visibility: inherit;" fill="rgb(0, 0, 0)" stroke="rgb(204, 204, 204)" stroke-width="1px"></line><line x1="339.3333333333333" y1="0" x2="339.3333333333333" y2="5" style="visibility: inherit;" fill="rgb(0, 0, 0)" stroke="rgb(204, 204, 204)" stroke-width="1px"></line><line x1="452.4444444444444" y1="0" x2="452.4444444444444" y2="5" style="visibility: inherit;" fill="rgb(0, 0, 0)" stroke="rgb(204, 204, 204)" stroke-width="1px"></line><line x1="565.5555555555555" y1="0" x2="565.5555555555555" y2="5" style="visibility: inherit;" fill="rgb(0, 0, 0)" stroke="rgb(204, 204, 204)" stroke-width="1px"></line><line x1="678.6666666666666" y1="0" x2="678.6666666666666" y2="5" style="visibility: inherit;" fill="rgb(0, 0, 0)" stroke="rgb(204, 204, 204)" stroke-width="1px"></line><line x1="791.7777777777778" y1="0" x2="791.7777777777778" y2="5" style="visibility: inherit;" fill="rgb(0, 0, 0)" stroke="rgb(204, 204, 204)" stroke-width="1px"></line><line x1="904.8888888888888" y1="0" x2="904.8888888888888" y2="5" style="visibility: inherit;" fill="rgb(0, 0, 0)" stroke="rgb(204, 204, 204)" stroke-width="1px"></line><line x1="1018" y1="0" x2="1018" y2="5" style="visibility: inherit;" fill="rgb(0, 0, 0)" stroke="rgb(204, 204, 204)" stroke-width="1px"></line></g><g transform="translate(0, 8)"><text x="0" y="0" dx="0em" dy="0.95em" style="text-anchor: middle; visibility: hidden; font-family: &quot;Helvetica Neue&quot;, sans-serif; font-size: 12px; font-weight: 200;" fill="rgb(50, 49, 63)" stroke="none" stroke-width="1px">-10</text><text x="113.1111111111111" y="0" dx="0em" dy="0.95em" style="text-anchor: middle; visibility: inherit; font-family: &quot;Helvetica Neue&quot;, sans-serif; font-size: 12px; font-weight: 200;" fill="rgb(50, 49, 63)" stroke="none" stroke-width="1px">0</text><text x="226.2222222222222" y="0" dx="0em" dy="0.95em" style="text-anchor: middle; visibility: inherit; font-family: &quot;Helvetica Neue&quot;, sans-serif; font-size: 12px; font-weight: 200;" fill="rgb(50, 49, 63)" stroke="none" stroke-width="1px">10</text><text x="339.3333333333333" y="0" dx="0em" dy="0.95em" style="text-anchor: middle; visibility: inherit; font-family: &quot;Helvetica Neue&quot;, sans-serif; font-size: 12px; font-weight: 200;" fill="rgb(50, 49, 63)" stroke="none" stroke-width="1px">20</text><text x="452.4444444444444" y="0" dx="0em" dy="0.95em" style="text-anchor: middle; visibility: inherit; font-family: &quot;Helvetica Neue&quot;, sans-serif; font-size: 12px; font-weight: 200;" fill="rgb(50, 49, 63)" stroke="none" stroke-width="1px">30</text><text x="565.5555555555555" y="0" dx="0em" dy="0.95em" style="text-anchor: middle; visibility: inherit; font-family: &quot;Helvetica Neue&quot;, sans-serif; font-size: 12px; font-weight: 200;" fill="rgb(50, 49, 63)" stroke="none" stroke-width="1px">40</text><text x="678.6666666666666" y="0" dx="0em" dy="0.95em" style="text-anchor: middle; visibility: inherit; font-family: &quot;Helvetica Neue&quot;, sans-serif; font-size: 12px; font-weight: 200;" fill="rgb(50, 49, 63)" stroke="none" stroke-width="1px">50</text><text x="791.7777777777778" y="0" dx="0em" dy="0.95em" style="text-anchor: middle; visibility: inherit; font-family: &quot;Helvetica Neue&quot;, sans-serif; font-size: 12px; font-weight: 200;" fill="rgb(50, 49, 63)" stroke="none" stroke-width="1px">60</text><text x="904.8888888888888" y="0" dx="0em" dy="0.95em" style="text-anchor: middle; visibility: inherit; font-family: &quot;Helvetica Neue&quot;, sans-serif; font-size: 12px; font-weight: 200;" fill="rgb(50, 49, 63)" stroke="none" stroke-width="1px">70</text><text x="1018" y="0" dx="0em" dy="0.95em" style="text-anchor: middle; visibility: hidden; font-family: &quot;Helvetica Neue&quot;, sans-serif; font-size: 12px; font-weight: 200;" fill="rgb(50, 49, 63)" stroke="none" stroke-width="1px">80</text></g><line x1="0" y1="0" x2="1018" y2="0" fill="rgb(0, 0, 0)" stroke="rgb(204, 204, 204)" stroke-width="1px"></line></g></g></g></g></svg>